<svg width="66" height="65" viewBox="0 0 66 65" fill="none" xmlns="http://www.w3.org/2000/svg">
<path d="M11.7255 0.764648H54.2745C60.7255 0.764648 65.9412 5.98034 65.9412 12.4313V53.3333C65.9412 59.7843 60.7255 65 54.2745 65H11.7255C5.27447 65 0.0587769 59.7843 0.0587769 53.3333V12.4313C0.0587769 5.98034 5.27447 0.764648 11.7255 0.764648Z" fill="#00005B"/>
<path d="M26.5216 39.1961H16.3098L14.2235 45.6745C14.1686 45.9216 13.949 46.0863 13.7019 46.0588H8.54114C8.23918 46.0588 8.15683 45.8941 8.23918 45.5647L17.0784 20.2274C17.1608 19.9529 17.2431 19.7059 17.3529 19.3764C17.4627 18.8 17.5176 18.196 17.5176 17.5921C17.4902 17.4549 17.6 17.3176 17.7372 17.2902H17.8196H24.847C25.0392 17.2902 25.1765 17.3725 25.2039 17.5098L35.2235 45.5098C35.3059 45.8118 35.2235 45.949 34.949 45.949H29.2117C29.0196 45.9765 28.8274 45.8392 28.7725 45.6471L26.5216 39.0588V39.1961ZM17.9019 33.7333H24.8745C24.7098 33.1568 24.4902 32.4706 24.2431 31.7568C23.9961 31.0157 23.749 30.2196 23.5019 29.3961C23.2274 28.5451 22.9804 27.7215 22.7059 26.8706C22.4314 26.0196 22.1843 25.2235 21.9647 24.4274C21.7451 23.6588 21.5529 22.9451 21.3608 22.2862H21.3059C21.0588 23.4666 20.7568 24.647 20.3725 25.8274C19.9608 27.1451 19.549 28.5176 19.1098 29.8902C18.7529 31.2902 18.3137 32.5804 17.9019 33.7333Z" fill="#9999FF"/>
<path d="M51.3922 36.7254H42.6902C42.8 37.5764 43.0745 38.4274 43.5412 39.1686C44.0353 39.9097 44.7216 40.4862 45.5451 40.8156C46.6431 41.2823 47.851 41.5293 49.0588 41.5019C50.0196 41.4744 50.9804 41.3921 51.9137 41.1999C52.7647 41.0901 53.5882 40.8705 54.3569 40.5686C54.4941 40.4588 54.5765 40.5137 54.5765 40.7882V44.9882C54.5765 45.098 54.549 45.2078 54.5216 45.3176C54.4667 45.3999 54.4118 45.4548 54.3294 45.5097C53.451 45.8941 52.5451 46.1686 51.5843 46.3333C50.2941 46.5803 49.0039 46.6901 47.6863 46.6627C45.6 46.6627 43.8431 46.3333 42.4157 45.7019C41.0706 45.1254 39.8902 44.2195 38.9569 43.094C38.0784 42.0235 37.4471 40.8156 37.0627 39.498C36.6784 38.2078 36.4863 36.8627 36.4863 35.4901C36.4863 34.0078 36.7059 32.5529 37.1725 31.1254C37.6118 29.7529 38.298 28.4901 39.2314 27.3646C40.1373 26.2666 41.2627 25.3882 42.5529 24.7568C43.8431 24.1254 45.3804 23.9058 47.1373 23.9058C48.5922 23.8783 50.0471 24.1529 51.3922 24.7568C52.5177 25.2509 53.5059 25.9921 54.2745 26.9529C54.9882 27.8862 55.5647 28.9293 55.9216 30.0823C56.2784 31.1803 56.4431 32.3058 56.4431 33.4313C56.4431 34.0901 56.4157 34.6666 56.3882 35.1882C56.3333 35.7097 56.3059 36.094 56.2784 36.3411C56.251 36.5333 56.0863 36.698 55.8941 36.698C55.7294 36.698 55.4275 36.7254 54.9882 36.7529C54.549 36.8078 54.0275 36.8352 53.3961 36.8352C52.7647 36.8352 52.1059 36.7254 51.3922 36.7254ZM42.6902 32.7176H48.4824C49.1961 32.7176 49.7177 32.7176 50.0471 32.6901C50.2667 32.6627 50.4863 32.6078 50.6784 32.4705V32.196C50.6784 31.8391 50.6235 31.5097 50.5137 31.1803C50.0196 29.6431 48.5647 28.5999 46.9451 28.6548C45.4353 28.5725 44.0078 29.3685 43.2941 30.7411C42.9647 31.3725 42.7725 32.0313 42.6902 32.7176Z" fill="#9999FF"/>
</svg>
