<svg width="36" height="55" viewBox="0 0 36 55" fill="none" xmlns="http://www.w3.org/2000/svg">
<g clip-path="url(#clip0_1_1061)">
<path d="M18 27.7646C18 25.3777 18.9482 23.0885 20.636 21.4007C22.3239 19.7129 24.6131 18.7646 27 18.7646C29.3869 18.7646 31.6761 19.7129 33.364 21.4007C35.0518 23.0885 36 25.3777 36 27.7646C36 30.1516 35.0518 32.4408 33.364 34.1286C31.6761 35.8164 29.3869 36.7646 27 36.7646C24.6131 36.7646 22.3239 35.8164 20.636 34.1286C18.9482 32.4408 18 30.1516 18 27.7646Z" fill="#1ABCFE"/>
<path d="M0 45.7646C0 43.3777 0.948211 41.0885 2.63604 39.4007C4.32387 37.7129 6.61305 36.7646 9 36.7646H18V45.7646C18 48.1516 17.0518 50.4408 15.364 52.1286C13.6761 53.8164 11.3869 54.7646 9 54.7646C6.61305 54.7646 4.32387 53.8164 2.63604 52.1286C0.948211 50.4408 0 48.1516 0 45.7646H0Z" fill="#0ACF83"/>
<path d="M18 0.764648V18.7646H27C29.3869 18.7646 31.6761 17.8164 33.364 16.1286C35.0518 14.4408 36 12.1516 36 9.76465C36 7.3777 35.0518 5.08851 33.364 3.40069C31.6761 1.71286 29.3869 0.764648 27 0.764648L18 0.764648Z" fill="#FF7262"/>
<path d="M0 9.76465C0 12.1516 0.948211 14.4408 2.63604 16.1286C4.32387 17.8164 6.61305 18.7646 9 18.7646H18V0.764648H9C6.61305 0.764648 4.32387 1.71286 2.63604 3.40069C0.948211 5.08851 0 7.3777 0 9.76465Z" fill="#F24E1E"/>
<path d="M0 27.7646C0 30.1516 0.948211 32.4408 2.63604 34.1286C4.32387 35.8164 6.61305 36.7646 9 36.7646H18V18.7646H9C6.61305 18.7646 4.32387 19.7129 2.63604 21.4007C0.948211 23.0885 0 25.3777 0 27.7646H0Z" fill="#A259FF"/>
</g>
<defs>
<clipPath id="clip0_1_1061">
<rect width="36" height="54" fill="white" transform="translate(0 0.764648)"/>
</clipPath>
</defs>
</svg>
