<svg width="66" height="64" viewBox="0 0 66 64" fill="none" xmlns="http://www.w3.org/2000/svg">
<path d="M12.0566 0.764648H53.9433C60.2939 0.764648 65.4284 5.89914 65.4284 12.2497V52.5149C65.4284 58.8655 60.2939 64 53.9433 64H12.0566C5.70609 64 0.571594 58.8655 0.571594 52.5149V12.2497C0.571594 5.89914 5.70609 0.764648 12.0566 0.764648Z" fill="#330000"/>
<path d="M31.919 38.5978H21.8662L19.8124 44.9483C19.7584 45.1915 19.5422 45.3537 19.299 45.3266H14.2185C13.9213 45.3266 13.8402 45.1645 13.9213 44.8402L22.6229 19.7893C22.704 19.5191 22.785 19.2218 22.8931 18.8975C23.0012 18.33 23.0553 17.7355 23.0553 17.141C23.0282 17.0059 23.1363 16.8707 23.2715 16.8437H30.2706C30.4868 16.8437 30.5949 16.9248 30.6219 17.0599L40.4855 44.8943C40.5666 45.1915 40.4855 45.3266 40.2153 45.3266H34.5673C34.3782 45.3537 34.189 45.2186 34.135 45.0294L31.919 38.5978ZM23.4336 33.112H30.2976C30.1355 32.5445 29.9193 31.8689 29.6761 31.1663C29.4328 30.4366 29.1896 29.6529 28.9464 28.8422C28.6762 28.0045 28.433 27.1938 28.1627 26.356C27.8925 25.5183 27.6493 24.7346 27.4331 23.9509C27.2169 23.1943 27.0277 22.4917 26.8386 21.8431H26.7845C26.5413 23.0051 26.2441 24.1671 25.8657 25.3291C25.4604 26.6263 25.055 27.9775 24.6226 29.3286C24.2443 30.7068 23.8389 31.977 23.4336 33.112ZM46.5118 21.5729C45.62 21.5999 44.7553 21.2486 44.1067 20.627C43.4851 19.9514 43.1609 19.0597 43.1879 18.1409C43.1609 17.222 43.5122 16.3573 44.1607 15.7357C44.8093 15.1142 45.6741 14.7899 46.5658 14.7899C47.6198 14.7899 48.4305 15.1142 49.025 15.7357C49.6195 16.3843 49.9438 17.2491 49.9168 18.1409C49.9438 19.0597 49.6195 19.9514 48.9709 20.627C48.3494 21.2756 47.4306 21.6269 46.5118 21.5729ZM43.4851 45.0294V24.2212C43.4851 23.9509 43.5932 23.8428 43.8365 23.8428H49.1871C49.4303 23.8428 49.5384 23.978 49.5384 24.2212V45.0294C49.5384 45.3266 49.4303 45.4618 49.1871 45.4618H43.8905C43.6203 45.4618 43.4851 45.2996 43.4851 45.0294Z" fill="#FF9A00"/>
</svg>
