<svg width="64" height="65" viewBox="0 0 64 65" fill="none" xmlns="http://www.w3.org/2000/svg">
<g clip-path="url(#clip0_1_1105)">
<path d="M11.3333 0.764648H52.6667C58.9333 0.764648 64 5.96123 64 12.3886V53.1407C64 59.5681 58.9333 64.7647 52.6667 64.7647H11.3333C5.06667 64.7647 0 59.5681 0 53.1407V12.3886C0 5.96123 5.06667 0.764648 11.3333 0.764648Z" fill="#101010"/>
<path d="M14.4 45.6468V17.5032C14.4 17.3117 14.48 17.2023 14.6667 17.2023C15.12 17.2023 15.5467 17.2023 16.16 17.175C16.8 17.1476 17.4667 17.1476 18.1867 17.1203C18.9067 17.0929 19.68 17.0929 20.5067 17.0656C21.3333 17.0382 22.1333 17.0382 22.9333 17.0382C25.12 17.0382 26.9333 17.3117 28.4267 17.8861C29.76 18.351 30.9867 19.1168 32 20.1288C32.8533 21.004 33.52 22.0707 33.9467 23.2468C34.3467 24.3955 34.56 25.5715 34.56 26.8023C34.56 29.1544 34.0267 31.0963 32.96 32.628C31.8933 34.1596 30.4 35.3083 28.6667 35.9647C26.8533 36.6485 24.8533 36.8946 22.6667 36.8946C22.0267 36.8946 21.6 36.8946 21.3333 36.8673C21.0667 36.8399 20.6933 36.8399 20.1867 36.8399V45.6194C20.2133 45.8109 20.08 45.975 19.8933 46.0023C19.8667 46.0023 19.84 46.0023 19.7867 46.0023H14.72C14.5067 46.0023 14.4 45.8929 14.4 45.6468ZM20.2133 22.4809V31.6707C20.5867 31.698 20.9333 31.7254 21.2533 31.7254H22.6667C23.7067 31.7254 24.7467 31.5613 25.7333 31.2331C26.5867 30.9869 27.3333 30.4673 27.92 29.7835C28.48 29.0997 28.7467 28.1698 28.7467 26.9664C28.7733 26.1186 28.56 25.2707 28.1333 24.5322C27.68 23.8211 27.04 23.2741 26.2667 22.9733C25.28 22.563 24.2133 22.3989 23.12 22.4262C22.4267 22.4262 21.8133 22.4262 21.3067 22.4536C20.7733 22.4262 20.4 22.4536 20.2133 22.4809Z" fill="#31A8FF"/>
<path d="M51.2 30.0024C50.4 29.5648 49.5467 29.2639 48.64 29.0724C47.6533 28.8536 46.6667 28.7169 45.6533 28.7169C45.12 28.6895 44.56 28.7716 44.0533 28.9083C43.7067 28.9904 43.4133 29.1819 43.2267 29.4554C43.0933 29.6742 43.0133 29.9477 43.0133 30.1938C43.0133 30.44 43.12 30.6861 43.28 30.9049C43.52 31.2058 43.84 31.4519 44.1867 31.6434C44.8 31.9716 45.44 32.2724 46.08 32.546C47.52 33.0383 48.9067 33.722 50.1867 34.5425C51.0667 35.1169 51.7867 35.8827 52.2933 36.8126C52.72 37.6878 52.9333 38.6451 52.9067 39.6297C52.9333 40.9152 52.56 42.2007 51.8667 43.2673C51.12 44.3613 50.08 45.2092 48.88 45.7015C47.5733 46.2759 45.9733 46.5767 44.0533 46.5767C42.8267 46.5767 41.6267 46.4673 40.4267 46.2212C39.4933 46.0571 38.56 45.7562 37.7067 45.346C37.52 45.2365 37.3867 45.0451 37.4133 44.8263V40.0673C37.4133 39.9853 37.44 39.8759 37.52 39.8212C37.6 39.7665 37.68 39.7938 37.76 39.8485C38.8 40.4776 39.8933 40.9152 41.0667 41.1887C42.08 41.4622 43.1467 41.5989 44.2133 41.5989C45.2267 41.5989 45.9467 41.4622 46.4267 41.216C46.8533 41.0246 47.1467 40.5596 47.1467 40.0673C47.1467 39.6844 46.9333 39.3289 46.5067 38.9733C46.08 38.6177 45.2 38.2075 43.8933 37.6878C42.5333 37.1955 41.28 36.5391 40.1067 35.7186C39.28 35.1169 38.5867 34.3237 38.08 33.3938C37.6533 32.5186 37.44 31.5613 37.4667 30.6041C37.4667 29.428 37.7867 28.3066 38.3733 27.2947C39.04 26.2007 40.0267 25.3254 41.1733 24.7784C42.4267 24.122 44 23.8212 45.8933 23.8212C46.9867 23.8212 48.1067 23.9032 49.2 24.0673C50 24.1767 50.7733 24.3955 51.4933 24.6964C51.6 24.7237 51.7067 24.8331 51.76 24.9425C51.7867 25.0519 51.8133 25.1613 51.8133 25.2707V29.7289C51.8133 29.8383 51.76 29.9477 51.68 30.0024C51.44 30.0571 51.3067 30.0571 51.2 30.0024Z" fill="#31A8FF"/>
</g>
<defs>
<clipPath id="clip0_1_1105">
<rect width="64" height="64" fill="white" transform="translate(0 0.764648)"/>
</clipPath>
</defs>
</svg>
