<svg width="64" height="64" viewBox="0 0 64 64" fill="none" xmlns="http://www.w3.org/2000/svg">
<path d="M11.3331 0.764653H52.6656C54.1543 0.76334 55.6287 1.05557 57.0044 1.62463C58.38 2.1937 59.63 3.02841 60.6827 4.08104C61.7354 5.13366 62.5703 6.38352 63.1395 7.75911C63.7087 9.13471 64.0011 10.609 64 12.0977V51.8328C64.0011 53.3215 63.7087 54.7958 63.1395 56.1713C62.5703 57.5468 61.7354 58.7966 60.6826 59.8491C59.6299 60.9016 58.3799 61.7362 57.0043 62.3052C55.6286 62.8741 54.1543 63.1662 52.6656 63.1647H11.3331C9.84455 63.166 8.37035 62.8738 6.99484 62.3048C5.61934 61.7358 4.36952 60.9012 3.3169 59.8487C2.26428 58.7962 1.42952 57.5464 0.860368 56.171C0.291218 54.7955 -0.00114565 53.3214 3.37371e-06 51.8328V12.0977C-0.00114543 10.6091 0.29121 9.13491 0.860344 7.7594C1.42948 6.38389 2.26422 5.13408 3.31683 4.08148C4.36943 3.02887 5.61924 2.19413 6.99475 1.62499C8.37026 1.05586 9.84449 0.763504 11.3331 0.764653Z" fill="#00005B"/>
<path d="M15.2007 44.5258V17.0847C15.2007 16.8988 15.2805 16.7915 15.4677 16.7915C15.9207 16.7915 16.3476 16.7915 16.9653 16.7653C17.6056 16.7391 18.272 16.7391 18.9921 16.7116C19.7122 16.6841 20.4897 16.6854 21.3121 16.6579C22.1345 16.6305 22.9345 16.6317 23.7395 16.6317C25.926 16.6317 27.7331 16.8988 29.2307 17.4579C30.5697 17.9129 31.7906 18.6602 32.8049 19.6456C33.6646 20.5075 34.3286 21.5444 34.7518 22.6858C35.155 23.7969 35.3624 24.9695 35.3646 26.1515C35.3646 28.4453 34.8313 30.3389 33.7647 31.8324C32.692 33.3239 31.1945 34.4573 29.4678 35.0847C27.6544 35.7511 25.6539 35.9907 23.4674 35.9907C22.8272 35.9907 22.4004 35.9907 22.1345 35.9645C21.8687 35.9383 21.4943 35.9383 20.9876 35.9383V44.4983C20.9936 44.5423 20.9906 44.5869 20.979 44.6297C20.9674 44.6725 20.9473 44.7125 20.92 44.7474C20.8926 44.7823 20.8586 44.8114 20.8198 44.8329C20.7811 44.8544 20.7384 44.868 20.6944 44.8727H15.5201C15.3067 44.8727 15.2007 44.7654 15.2007 44.5258ZM21.0138 21.937V30.8976C21.3882 30.9238 21.7339 30.9513 22.0534 30.9513H23.4624C24.5053 30.9521 25.5417 30.7887 26.5337 30.4671C27.3838 30.2175 28.1433 29.7267 28.7202 29.0543C29.2806 28.3866 29.5477 27.4806 29.5477 26.3087C29.572 25.4761 29.3591 24.6537 28.9337 23.9375C28.4875 23.2443 27.8317 22.7118 27.0616 22.4175C26.0604 22.0249 24.9889 21.8435 23.9142 21.8846C23.2216 21.8846 22.6075 21.8846 22.1008 21.9108C21.7364 21.8874 21.3705 21.8961 21.0076 21.937H21.0138Z" fill="#9999FF"/>
<path d="M39.0949 23.4857H43.7611C43.8876 23.4885 44.01 23.5314 44.1107 23.608C44.2113 23.6847 44.2851 23.7913 44.3215 23.9125C44.4031 24.1269 44.4568 24.3509 44.4812 24.5789C44.5349 24.8448 44.5886 25.138 44.6148 25.4051C44.641 25.6984 44.6684 26.0191 44.6684 26.3648C45.4693 25.4306 46.4366 24.6532 47.5214 24.0723C48.7607 23.383 50.1567 23.0246 51.5749 23.0314C51.6188 23.0255 51.6635 23.0284 51.7062 23.0401C51.749 23.0517 51.789 23.0717 51.8239 23.0991C51.8588 23.1264 51.8879 23.1605 51.9094 23.1992C51.9309 23.238 51.9445 23.2806 51.9493 23.3247V28.6324C51.9493 28.8459 51.8157 28.9257 51.5224 28.9257C50.555 28.8934 49.5873 28.9827 48.6421 29.1916C47.8723 29.3514 47.1218 29.5928 46.4031 29.9116C45.8872 30.1446 45.4243 30.4805 45.0428 30.8988V44.502C45.0428 44.7678 44.9355 44.8764 44.6959 44.8764H39.4368C39.3878 44.8836 39.3378 44.881 39.2897 44.8688C39.2417 44.8565 39.1966 44.8348 39.157 44.805C39.1174 44.7752 39.0841 44.7378 39.0591 44.695C39.0341 44.6522 39.0178 44.6048 39.0112 44.5557V29.672C39.0112 29.0318 39.0112 28.3654 38.9838 27.6752C38.9563 26.9851 38.9576 26.2887 38.9301 25.5961C38.9301 24.982 38.8777 24.3955 38.824 23.7827C38.8109 23.7191 38.8232 23.6528 38.8581 23.5981C38.8931 23.5433 38.948 23.5043 39.0112 23.4894C39.0112 23.462 39.0637 23.462 39.0911 23.4894L39.0949 23.4857Z" fill="#9999FF"/>
</svg>
